<svg xmlns="http://www.w3.org/2000/svg" viewBox="0 0 64 64">
  <defs>
    <linearGradient id="g" x1="0" y1="0" x2="1" y2="1">
      <stop offset="0" stop-color="#C9A227" />
      <stop offset="1" stop-color="#AF8C2F" />
    </linearGradient>
  </defs>
  <rect width="64" height="64" rx="12" fill="#2B1E1A" />
  <g fill="url(#g)">
    <path d="M22 18h20a8 8 0 0 1 0 16h-2a12 12 0 0 1-12 12h-4v-4h4a8 8 0 0 0 8-8H22V18z" />
    <path d="M26 12c2 3 2 6 0 9M32 12c2 3 2 6 0 9M38 12c2 3 2 6 0 9" stroke="#C9A227" stroke-width="2" fill="none" stroke-linecap="round" />
  </g>
</svg>